<svg width="76" height="76" viewBox="0 0 76 76" fill="none" xmlns="http://www.w3.org/2000/svg">
<circle cx="38" cy="38" r="38" fill="#F4AD54"/>
<path fill-rule="evenodd" clip-rule="evenodd" d="M43.1865 12H32.8136V28.4237H31.9637C28.6645 28.4237 25.9488 31.0632 25.9116 34.3821C25.9039 35.0674 25.8995 35.7352 25.8985 36.3866L25.8983 36.6583C25.8975 48.0258 26.9488 54.3542 29.5848 61.3215C29.9709 62.3418 30.9535 63 32.0386 63H43.9615C45.0466 63 46.0292 62.3418 46.4152 61.3215C49.2221 53.9025 50.2323 47.2079 50.0885 34.3821C50.0513 31.0632 47.3355 28.4237 44.0364 28.4237H43.1865V12ZM43.6451 58.997C44.7444 58.8181 45.694 58.1381 46.219 57.1659C45.8556 58.3715 45.446 59.5633 44.9877 60.7748C44.8352 61.1779 44.4354 61.4633 43.9615 61.4633H32.0386C31.5646 61.4633 31.1649 61.1779 31.0124 60.7748C30.7266 60.0194 30.4598 59.2717 30.2113 58.5235C30.5993 58.7585 31.0336 58.9209 31.4941 58.9956C35.9768 59.7224 39.1623 59.7269 43.6451 58.997ZM37.5678 45.1912C42.1109 45.1912 45.7939 43.1073 45.7939 40.5366C45.7939 37.966 42.1109 35.8821 37.5678 35.8821C33.0247 35.8821 29.3418 37.966 29.3418 40.5366C29.3418 43.1073 33.0247 45.1912 37.5678 45.1912Z" fill="white"/>
</svg>
